<svg xmlns="http://www.w3.org/2000/svg" width="16" height="16"><style>use:not(:target){display:none;}</style><defs><path id="a" d="M5 0C2.25 0 0 2.25 0 5v6c0 2.75 2.25 5 5 5h6c2.75 0 5-2.25 5-5V5c0-2.75-2.25-5-5-5zm0 2h6c1.67 0 3 1.33 3 3v6c0 1.67-1.33 3-3 3H5c-1.67 0-3-1.33-3-3V5c0-1.67 1.33-3 3-3zM7 4v3H4v2h3v3h2V9h3.1V7H9V4z"/><path id="d" d="M5 0C2.25 0 0 2.25 0 5v6c0 2.75 2.25 5 5 5h6c2.75 0 5-2.25 5-5V5c0-2.75-2.25-5-5-5zm0 2h6c1.67 0 3 1.33 3 3v6c0 1.67-1.33 3-3 3H5c-1.67 0-3-1.33-3-3V5c0-1.67 1.33-3 3-3zM10.12 4.464L8 6.586 5.88 4.464 4.463 5.88 6.586 8l-2.122 2.12 1.415 1.416L8 9.414l2.192 2.192 1.414-1.414L9.414 8l2.122-2.12z"/></defs><use id="light" href="#a" fill="#f9f9fab3"/><use id="dark" href="#a" fill="#000000b3"/><use id="white" href="#a" fill="#fafafa"/><use id="black" href="#a" fill="#000"/><use id="lightD" href="#d" fill="#f9f9fab3"/><use id="darkD" href="#d" fill="#000000b3"/><use id="whiteD" href="#d" fill="#fafafa"/><use id="blackD" href="#d" fill="#000"/></svg>
