<svg xmlns="http://www.w3.org/2000/svg" width="64" height="64"><style>use:not(:target){display:none;}</style><defs><path id="a" d="M2 8v44h21c4.33 0 6.43 3.54 6.43 3.54l2.57 4.3 2.57-4.3S36.43 52 42 52h20V8H42c-4.63 0-7.84 1.9-9.9 3.67C30.16 9.9 27.2 8 23 8zm6 6h15c4.33 0 6.43 3.54 6.43 3.54l2.57 4.3 2.57-4.3S36.43 14 42 14h14v32H42c-4.63 0-7.84 1.9-9.9 3.67C30.16 47.9 27.2 46 23 46H8zm4 6h16v4H12zm0 8h16v4H12zm0 8h16v4H12z"/></defs><use id="black" href="#a" fill="#0c0c0d"/><use id="light" href="#a" fill="#d7d7db"/><use id="dark" href="#a" fill="#4a4a4f"/></svg>
