<svg xmlns="http://www.w3.org/2000/svg" width="64" height="40" viewBox="0 0 16 16"><path fill="#b1b1b3" d="M15.49-.004a.5.5 0 0 0-.344.15L12.293 3h-.725l-.943-1.416c-.14-.21-.374-.334-.625-.334H6c-.25 0-.486.125-.625.334L4.432 3H.802C.248 3 0 3.25 0 3.8v9.4c0 .55.25.8.8.8h.493L.146 15.146a.5.5 0 1 0 .708.708l15-15a.5.5 0 0 0-.364-.858zM15.105 3l-3.423 3.424c.35.617.568 1.32.568 2.076 0 2.338-1.912 4.25-4.25 4.25-.757 0-1.46-.218-2.076-.568L4.104 14H15.2c.55 0 .8-.25.8-.8V3.8c0-.55-.25-.8-.8-.8h-.095zM8 4.25c.86 0 1.653.274 2.322.72L9.236 6.058C8.866 5.868 8.45 5.75 8 5.75c-1.528 0-2.75 1.222-2.75 2.75 0 .45.116.865.307 1.236L4.47 10.822c-.446-.668-.72-1.46-.72-2.322 0-2.338 1.912-4.25 4.25-4.25zm2.568 3.287l-3.53 3.53c.3.113.62.183.962.183 1.528 0 2.75-1.222 2.75-2.75 0-.34-.07-.663-.182-.963z"/></svg>
