<svg xmlns="http://www.w3.org/2000/svg" width="72" height="46"><path fill="#b1b1b3" d="M53.6 2a1.31 1.31 0 00-.9.4l-7.5 7.48h-1.9l-2.46-3.72a1.96 1.96 0 00-1.64-.87H28.7c-.66 0-1.28.33-1.64.87l-2.47 3.72h-9.53c-1.45 0-2.1.66-2.1 2.1v24.7c0 1.44.65 2.1 2.1 2.1h1.29l-3.01 3.01a1.31 1.31 0 101.86 1.86l39.4-39.4A1.31 1.31 0 0053.64 2zm-1.01 7.88l-8.98 8.98a11 11 0 011.49 5.45c0 6.14-5.02 11.2-11.2 11.2a11 11 0 01-5.45-1.49l-4.78 4.77h29.1c1.44 0 2.1-.66 2.1-2.1v-24.7c0-1.44-.66-2.1-2.1-2.1zm-18.6 3.28c2.26 0 4.34.72 6.09 1.89l-2.85 2.85a7.2 7.2 0 00-9.65 9.65l-2.85 2.85a10.92 10.92 0 01-1.9-6.09c0-6.14 5.03-11.2 11.2-11.2zm6.74 8.63l-9.26 9.26a7.2 7.2 0 009.26-9.27z"/></svg>
