<svg xmlns="http://www.w3.org/2000/svg" width="16" height="16"><style>#a:not(:target),#d:not(:target){display: none;}</style><path style="fill:#444;" d="M 3.8709677,0 A 3.8713548,3.8713548 0 0 0 0,3.8709677 V 11.129032 A 3.8713548,3.8713548 0 0 0 3.8709677,15 H 11.129032 A 3.8713548,3.8713548 0 0 0 15,11.129032 V 3.8709677 A 3.8713548,3.8713548 0 0 0 11.129032,0 Z"/><path id="a" style="fill:#fff;" d="M 7 3 L 7 7 L 3 7 L 3 8 L 7 8 L 7 12 L 8 12 L 8 8 L 12 8 L 12 7 L 8 7 L 8 3 L 7 3 z"/><path id="d" style="fill:#fff;" d="M 10.328427,3.9644661 7.5,6.7928932 4.6715729,3.9644661 3.9644661,4.6715729 6.7928932,7.5 3.9644661,10.328427 4.6715729,11.035534 7.5,8.2071068 10.328427,11.035534 11.035534,10.328427 8.2071068,7.5 11.035534,4.6715729 Z"/></svg>